<svg width="130" height="130" viewBox="0 0 130 130" fill="none" xmlns="http://www.w3.org/2000/svg">
<g filter="url(#filter0_d_350_3)">
<path d="M40.376 107.456C39.0107 107.456 38.328 106.304 38.328 104C38.2427 101.867 38.2853 98.496 38.456 93.888C38.6267 89.28 38.712 84.1173 38.712 78.4C38.712 73.792 38.584 69.056 38.328 64.192C38.1573 59.2427 37.7307 54.5067 37.048 49.984C36.4507 45.376 35.5547 41.28 34.36 37.696C33.1653 34.112 31.5867 31.2533 29.624 29.12C27.7467 26.9867 25.4427 25.92 22.712 25.92C19.8107 25.92 17.2507 26.6453 15.032 28.096C12.8987 29.4613 10.8933 31.168 9.016 33.216C7.224 35.264 5.38933 37.2693 3.512 39.232C3 39.8293 2.65867 40 2.488 39.744C2.232 39.488 2.14667 39.1893 2.232 38.848C3 37.1413 4.28 35.2213 6.072 33.088C7.94933 30.9547 10.04 28.9493 12.344 27.072C14.7333 25.1093 17.1653 23.5307 19.64 22.336C22.2 21.056 24.504 20.416 26.552 20.416C29.7947 20.416 32.568 21.9093 34.872 24.896C37.176 27.8827 39.0107 31.8933 40.376 36.928C41.8267 41.9627 42.8507 47.6373 43.448 53.952C44.1307 60.1813 44.472 66.624 44.472 73.28C44.472 83.264 43.8747 92.6507 42.68 101.44C44.216 96.2347 46.0507 90.4747 48.184 84.16C50.3173 77.76 52.792 71.1467 55.608 64.32C58.424 57.408 61.5387 50.624 64.952 43.968C68.4507 37.312 72.248 31.1253 76.344 25.408C80.5253 19.6053 85.048 14.6133 89.912 10.432C94.8613 6.16533 100.109 3.05066 105.656 1.088C107.875 0.405329 109.88 0.0639954 111.672 0.0639954C114.659 0.0639954 117.261 0.874662 119.48 2.49599C121.784 4.032 123.192 6.37866 123.704 9.536V9.79199C123.704 10.56 123.533 11.328 123.192 12.096C122.936 12.864 122.637 13.248 122.296 13.248C121.784 13.248 121.528 12.352 121.528 10.56C121.528 8.512 120.973 6.76266 119.864 5.312C118.755 3.776 116.92 3.008 114.36 3.008C112.824 3.008 110.947 3.392 108.728 4.16C102.243 6.37866 95.928 10.5173 89.784 16.576C83.7253 22.6347 77.9653 30.1013 72.504 38.976C67.0427 47.8507 61.9653 57.7493 57.272 68.672C52.5787 79.5093 48.3973 90.944 44.728 102.976C44.3867 104.171 43.7467 105.195 42.808 106.048C41.9547 106.987 41.144 107.456 40.376 107.456Z" fill="white"/>
<path d="M3 117.952H59.832V119.872H3V117.952Z" fill="white"/>
</g>
<defs>
<filter id="filter0_d_350_3" x="0.104004" y="0.0639648" width="129.6" height="129.808" filterUnits="userSpaceOnUse" color-interpolation-filters="sRGB">
<feFlood flood-opacity="0" result="BackgroundImageFix"/>
<feColorMatrix in="SourceAlpha" type="matrix" values="0 0 0 0 0 0 0 0 0 0 0 0 0 0 0 0 0 0 127 0" result="hardAlpha"/>
<feOffset dx="2" dy="6"/>
<feGaussianBlur stdDeviation="2"/>
<feComposite in2="hardAlpha" operator="out"/>
<feColorMatrix type="matrix" values="0 0 0 0 1 0 0 0 0 0.843137 0 0 0 0 0 0 0 0 1 0"/>
<feBlend mode="normal" in2="BackgroundImageFix" result="effect1_dropShadow_350_3"/>
<feBlend mode="normal" in="SourceGraphic" in2="effect1_dropShadow_350_3" result="shape"/>
</filter>
</defs>
</svg>
